Coordinates
version=1
nRows=11
nColumns=42
inDegrees=yes

Units are S.I. units (second, meters, Newtons, ...)
If the header above contains a line with 'inDegrees', this indicates whether rotational values are in degrees (yes) or radians (no).

endheader
time	pelvis_tilt	pelvis_list	pelvis_rotation	pelvis_tx	pelvis_ty	pelvis_tz	hip_flexion_r	hip_adduction_r	hip_rotation_r	knee_angle_r	knee_adduction_r	knee_angle_r_beta	ankle_angle_r	subtalar_angle_r	mtp_angle_r	hip_flexion_l	hip_adduction_l	hip_rotation_l	knee_angle_l	knee_adduction_l	knee_angle_l_beta	ankle_angle_l	subtalar_angle_l	mtp_angle_l	lumbar_extension	lumbar_bending	lumbar_rotation	arm_flex_r	arm_add_r	arm_rot_r	elbow_flex_r	pro_sup_r	wrist_flex_r	wrist_dev_r	arm_flex_l	arm_add_l	arm_rot_l	elbow_flex_l	pro_sup_l	wrist_flex_l	wrist_dev_l
      0.00000000	     13.64588752	     -1.27862556	      3.27384632	     -1.13358707	      0.85295268	     -0.26845100	     10.97548804	      1.42798582	     -7.89127354	     16.71467037	      1.69868948	      0.29172603	     12.33649744	     -9.52349336	     -9.46820562	    -26.45954019	     -3.67265986	    -11.68268165	      1.79110232	      9.03924836	      0.03126063	     22.86763282	      7.32869613	     -9.46820562	    -26.57318379	      1.87228944	      2.63988921	    -13.57625843	     -5.74152531	    -10.98453277	     29.54342114	     90.00000001	      0.00000000	      0.00000000	     29.24437536	     -8.84157938	      2.32546504	     42.16428666	     90.00000001	      0.00000000	      0.00000000
      0.01000000	     13.54279811	     -0.96194436	      3.46286158	     -1.12330833	      0.85100334	     -0.26847437	     11.05560130	      0.99330726	     -8.48913557	     14.13036912	      1.82995652	      0.24662147	     12.17160685	     -7.84794024	     -9.42143531	    -27.04932050	     -3.33131687	    -11.39412630	      1.90345246	      8.71676024	      0.03322151	     23.29232893	      7.51628116	     -9.42143531	    -26.45277826	      1.66085309	      2.41815276	    -14.13969837	     -5.60998234	    -11.01751884	     29.36547777	     90.00000001	      0.00000000	      0.00000000	     29.80346512	     -8.85683623	      2.57422734	     43.06134816	     90.00000001	      0.00000000	      0.00000000
      0.02000000	     13.15522272	     -0.65757035	      3.35530993	     -1.11304927	      0.84860267	     -0.26803078	     11.87013418	      0.59297364	     -9.42884758	     12.71955630	      1.77303708	      0.22199814	     12.05649820	     -7.32438958	     -9.40541984	    -27.33782968	     -2.96040834	    -11.43562520	      2.11209878	      8.57458383	      0.03686308	     23.47496827	      7.52881110	     -9.40541984	    -26.02983579	      1.33752102	      2.57796884	    -14.71018813	     -5.48819012	    -11.03483104	     29.16883030	     90.00000001	      0.00000000	      0.00000000	     30.37675530	     -8.68044013	      2.69563629	     43.68580537	     90.00000001	      0.00000000	      0.00000000
      0.03000000	     13.32694137	     -0.45699487	      3.95179286	     -1.10254312	      0.84732538	     -0.26824059	     11.19431954	      0.26086437	     -9.99620164	      9.94948421	      1.97637580	      0.17365126	     11.95420280	     -4.44833478	     -9.36080647	    -28.13737404	     -2.93774319	    -10.63131726	      2.34278397	      8.10982595	      0.04088929	     23.77855239	      7.76288698	     -9.36080647	    -26.22352054	      1.40004343	      1.97868729	    -15.05978706	     -5.27063859	    -11.32937557	     29.00883053	     90.00000001	      0.00000000	      0.00000000	     30.67497636	     -9.01795000	      3.52720917	     44.89523621	     90.00000001	      0.00000000	      0.00000000
      0.04000000	     13.17947557	     -0.18983547	      4.23693282	     -1.09179630	      0.84548169	     -0.26805200	     11.74241831	     -0.25216879	    -12.39999332	      9.47586972	      1.88607011	      0.16538513	     12.82845729	     -0.61687783	     -9.15147795	    -28.56343711	     -2.78553640	    -10.57608891	      2.81919205	      7.78529826	      0.04920418	     24.10232047	      8.30179829	     -9.15147795	    -26.01466811	      1.27281830	      1.76202917	    -15.40744864	     -5.00512376	    -12.02821205	     28.80150198	     90.00000001	      0.00000000	      0.00000000	     30.97115665	     -9.20058253	      4.51556270	     45.72499667	     90.00000001	      0.00000000	      0.00000000
      0.05000000	     12.95346934	      0.07796563	      4.47802088	     -1.08127598	      0.84384992	     -0.26783690	     11.99268976	     -0.71716630	    -12.98585433	      8.57048124	      2.07505511	      0.14958312	     12.57241570	      0.07492757	     -9.11896276	    -28.83545594	     -2.57556693	    -10.28559379	      3.38274287	      7.36372632	      0.05904000	     24.25095841	      8.50161012	     -9.11896276	    -25.77256618	      1.14321901	      1.53413422	    -15.67432820	     -4.87447543	    -12.07622608	     28.59930800	     90.00000001	      0.00000000	      0.00000000	     31.21045879	     -9.20899447	      4.72850679	     46.38473539	     90.00000001	      0.00000000	      0.00000000
      0.06000000	     12.63408910	      0.17145912	      4.46667619	     -1.07061877	      0.84216428	     -0.26715105	     12.53765614	     -0.89040483	    -13.18200797	      8.43609723	      2.06028826	      0.14723767	     12.50516953	      0.13815425	     -9.11023980	    -29.08390281	     -2.54807248	    -10.17574058	      3.85741860	      7.22285725	      0.06732466	     24.22120686	      8.52904415	     -9.11023980	    -25.40467901	      1.12614774	      1.56280512	    -15.92149209	     -4.83895246	    -12.08793798	     28.52864056	     90.00000001	      0.00000000	      0.00000000	     31.40179531	     -9.17775211	      4.76478189	     46.63074782	     90.00000001	      0.00000000	      0.00000000
      0.07000000	     12.55395727	      0.38502921	      5.00780113	     -1.05978343	      0.84118297	     -0.26701229	     12.46734246	     -1.34934418	    -14.31409458	      8.17946823	      2.17588352	      0.14275865	     12.13076872	      0.47319608	     -9.07102379	    -29.22254528	     -2.59943603	    -10.07573867	      5.03374054	      6.73333356	      0.08785535	     24.40550696	      8.99858980	     -9.07102379	    -25.31267755	      1.14393595	      1.10213423	    -15.90830022	     -4.64574851	    -12.40329395	     28.11893734	     90.00000001	      0.00000000	      0.00000000	     31.32971420	     -9.42279660	      5.61010340	     47.65335694	     90.00000001	      0.00000000	      0.00000000
      0.08000000	     12.21377572	      0.40637718	      5.05778240	     -1.04858142	      0.83994249	     -0.26613989	     12.78401838	     -1.40478962	    -14.42994423	      8.39212751	      2.08695430	      0.14647026	     12.06190853	      0.41494663	     -9.06060708	    -29.33697226	     -2.67788757	     -9.89942518	      5.75002628	      6.49664690	      0.10035689	     24.34282302	      9.08868220	     -9.06060708	    -24.86227275	      1.19394339	      1.17642609	    -16.06911234	     -4.60164096	    -12.45092504	     28.02083290	     90.00000001	      0.00000000	      0.00000000	     31.25944020	     -9.32558857	      5.72512345	     47.83739566	     90.00000001	      0.00000000	      0.00000000
      0.09000000	     12.31257959	      0.20514472	      5.43205818	     -1.03719407	      0.83940370	     -0.26526651	     12.76907023	     -1.31286079	    -16.04269325	      9.43711033	      1.91623064	      0.16470865	     11.84982286	      0.01964805	     -8.93350259	    -29.36544238	     -3.42309400	    -11.68822757	      7.78063500	      6.37544045	      0.13579770	     25.03111118	     11.48556301	     -8.93350259	    -24.87751091	      1.60964044	      1.07640759	    -15.87538131	     -4.36211165	    -13.69388937	     27.55199867	     90.00000001	      0.00000000	      0.00000000	     31.07582931	     -9.61588296	      6.79803136	     48.44207794	     90.00000001	      0.00000000	      0.00000000
      0.10000000	     12.02735551	      0.14329590	      5.45786260	     -1.02564339	      0.83876846	     -0.26411842	     12.85964394	     -1.21781366	    -16.02161781	      9.97919162	      1.77330845	      0.17416975	     11.72087972	     -0.18747330	     -8.92297810	    -29.40486712	     -3.56810586	    -11.33969763	      8.71120687	      5.99929422	      0.15203924	     24.80032250	     11.46304798	     -8.92297810	    -24.47426263	      1.74735287	      1.18640246	    -15.88983953	     -4.36741376	    -13.68331539	     27.49525099	     90.00000001	      0.00000000	      0.00000000	     30.78423630	     -9.51358075	      6.78423010	     48.46957482	     90.00000001	      0.00000000	      0.00000000
